<svg width="170" height="54" viewBox="0 0 170 54" fill="none" xmlns="http://www.w3.org/2000/svg">
<g id="Group 3">
<mask id="mask0_59_115" style="mask-type:alpha" maskUnits="userSpaceOnUse" x="0" y="0" width="170" height="54">
<rect id="Rectangle 2" y="0.755959" width="170" height="52.8107" fill="black"/>
</mask>
<g mask="url(#mask0_59_115)">
<g id="furieuse-logo">
<path id="e" d="M156.519 37.0025L146.954 35.9112L145.404 34.0495L154.235 22.6243L149.582 13.4662L139.416 19.5428L135.69 26.3587L139.416 39.9115L143.465 42.9489L142.388 52.2776L156.519 37.0007V37.0025ZM143.337 32.2098L142.433 31.3532L142.734 22.3657L147.387 26.7732L143.337 32.2079V32.2098Z" fill="#FFFAF3"/>
<path id="s" d="M122.447 31.0838L116.803 39.3835L125.381 44.7247L135.025 37.7053L135.692 26.3608L132.403 24.2845L124.803 25.7867L124.892 20.1356L132.403 24.2845L136.061 15.5079L124.905 15.9976L118.083 22.7493L118.782 28.4444L127.656 28.5728L129.51 38.5875L122.447 31.0838Z" fill="#FFFAF3"/>
<path id="u" d="M96.4505 23.0939L101.694 15.1464L105.738 22.2098L105.16 36.3368L108.938 35.4985L109.737 16.7366L116.004 17.7069L116.803 39.3833L111.026 42.12L109.161 38.1031L104.183 43.2241L98.6717 38.7652L98.8046 26.8008L96.4505 23.0939Z" fill="#FFFAF3"/>
<path id="e_2" d="M90.4053 34.35L88.4943 32.8057L96.4485 23.0936L91.0276 16.3676L82.3625 22.6076L78.1859 34.218L86.5408 42.2976L92.008 42.9597L98.0069 34.572L90.4072 34.3519L90.4053 34.35ZM85.1173 30.4212V23.3137L90.1394 26.8904L86.6295 31.6318L85.1191 30.423L85.1173 30.4212Z" fill="#FFFAF3"/>
<g id="i">
<path id="Vector" d="M71.107 42.2977V25.5442L78.7067 20.9624L77.9627 41.8043L71.107 42.2977Z" fill="#FFFAF3"/>
<path id="Vector_2" d="M72.924 17.2705L87.2962 8.49025L78.7068 20.9627L72.924 17.2705Z" fill="#FFFAF3"/>
</g>
<path id="r" d="M56.5686 42.2976V26.2136L52.1281 23.178L59.5432 16.3676L63.5591 22.4406L68.2156 17.1875L73.2544 22.6864L68.8766 28.5118L64.4989 26.1329L63.5591 42.2976H56.5686Z" fill="#FFFAF3"/>
<path id="u_2" d="M41.5371 44.319L44.4175 38.3927L49.628 43.9118L55.5253 36.2137L51.9599 32.9434L52.2351 16.9345L45.8558 17.4114L44.6907 36.0083L40.2336 34.1007L41.1254 20.7497L35.2963 15.8432L30.6324 24.4272L33.581 25.9257L33.2394 40.6415L41.5371 44.319Z" fill="#FFFAF3"/>
<path id="F" d="M31.5924 51.2011L24.1182 29.6053L28.1637 29.0606L30.6323 24.4274H21.9912L22.6097 15.2308L31.1807 17.4116L36.598 11.5532L21.9912 6.92007L13.0769 25.1776L19.7977 40.6417L17.8775 46.5679L31.5924 51.2011Z" fill="#FFFAF3"/>
</g>
</g>
</g>
</svg>
